<?xml version="1.0" encoding="utf-8"?>
<!-- Generator: Adobe Illustrator 15.1.0, SVG Export Plug-In . SVG Version: 6.00 Build 0)  -->
<!DOCTYPE svg PUBLIC "-//W3C//DTD SVG 1.1//EN" "http://www.w3.org/Graphics/SVG/1.1/DTD/svg11.dtd">
<svg version="1.1" id="Layer_1" xmlns="http://www.w3.org/2000/svg" xmlns:xlink="http://www.w3.org/1999/xlink" x="0px" y="0px"
	 width="800px" height="400px" viewBox="0 0 800 400" enable-background="new 0 0 800 400" xml:space="preserve">
<g id="Camera_2_">
	<defs>
		<rect id="SVGID_1_" x="321.162" y="124.792" width="176.509" height="137.285"/>
	</defs>
	<clipPath id="SVGID_2_">
		<use xlink:href="#SVGID_1_"  overflow="visible"/>
	</clipPath>
	<path clip-path="url(#SVGID_2_)" fill="#929292" d="M484.871,150.942c0,0-23.857,0-27.688,0c-3.422,0-5.133-1.966-5.133-1.966
		l-10.163-19.996l-0.013,0.039c-2.388-2.585-5.778-4.227-9.577-4.227h-45.493c-3.792,0-7.182,1.641-9.576,4.227l-0.013-0.039
		l-10.164,19.996c0,0-1.711,1.966-5.133,1.966c-3.831,0-27.682,0-27.682,0c-7.227,0-13.075,5.854-13.075,13.075v84.986
		c0,7.22,5.848,13.074,13.075,13.074h150.634c7.22,0,12.8-5.854,12.8-13.074v-84.986
		C497.671,156.796,492.091,150.942,484.871,150.942z M491.134,249.003c0,3.6-2.656,6.537-6.263,6.537H334.237
		c-3.607,0-6.538-2.938-6.538-6.537v-84.986c0-3.607,2.931-6.537,6.538-6.537c0,0,24.72,0,29.418,0c4.699,0,7.418-3.269,7.418-3.269
		l10.956-20.755c1.276-1.373,2.969-2.125,4.775-2.125h45.493c1.814,0,3.506,0.753,4.776,2.125l10.955,20.755
		c0,0,2.719,3.269,7.418,3.269s29.425,0,29.425,0c3.606,0,6.263,2.93,6.263,6.537V249.003z"/>
	<path clip-path="url(#SVGID_2_)" fill="#929292" d="M409.416,170.554c-16.247,0-29.417,13.171-29.417,29.418
		c0,16.248,13.17,29.419,29.417,29.419c16.248,0,29.418-13.171,29.418-29.419C438.834,183.725,425.664,170.554,409.416,170.554z
		 M409.416,224.162c-13.355,0-24.189-10.834-24.189-24.19c0-13.355,10.833-24.189,24.189-24.189c13.356,0,24.19,10.834,24.19,24.189
		C433.606,213.328,422.772,224.162,409.416,224.162z"/>
	<path clip-path="url(#SVGID_2_)" fill="#929292" d="M409.416,157.479c-23.468,0-42.492,19.024-42.492,42.492
		c0,23.469,19.024,42.493,42.492,42.493c23.469,0,42.493-19.024,42.493-42.493C451.909,176.503,432.885,157.479,409.416,157.479z
		 M409.416,237.237c-20.576,0-37.264-16.689-37.264-37.266c0-20.576,16.688-37.264,37.264-37.264
		c20.577,0,37.265,16.688,37.265,37.264C446.681,220.548,429.993,237.237,409.416,237.237z"/>
</g>
</svg>
